<?xml version="1.0" encoding="utf-8"?>
<!-- Generator: Adobe Illustrator 26.0.3, SVG Export Plug-In . SVG Version: 6.00 Build 0)  -->
<svg version="1.1" id="Layer_1" xmlns="http://www.w3.org/2000/svg" xmlns:xlink="http://www.w3.org/1999/xlink" x="0px" y="0px"
	 viewBox="0 0 512 512" style="enable-background:new 0 0 512 512;" xml:space="preserve">
<style type="text/css">
	.st0{fill:#FFFFFF;}
	.st1{fill:#B3B3B3;}
	.st2{fill:url(#SVGID_1_);}
	.st3{fill:#9C4221;}
	.st4{fill:url(#SVGID_00000169543027422419193180000009808626355470294436_);}
	.st5{fill:#975A16;}
	.st6{fill:url(#SVGID_00000080896477385374806900000005945822519317390233_);}
	.st7{fill:#2C5282;}
	.st8{fill:url(#SVGID_00000148626443602061359120000002550769066372466873_);}
	.st9{fill:#276749;}
	.st10{fill:none;}
	.st11{opacity:0.5;fill:#FFFFFF;}
</style>
<g>
	<rect x="235" y="364" class="st0" width="42" height="20"/>
	<path class="st1" d="M276,365v18h-40v-18H276 M278,363h-44v22h44V363L278,363z"/>
</g>
<g>
	<rect x="235" y="84" class="st0" width="42" height="20"/>
	<path class="st1" d="M276,85v18h-40V85H276 M278,83h-44v22h44V83L278,83z"/>
</g>
<g>
	<rect x="235" y="128" class="st0" width="42" height="20"/>
	<path class="st1" d="M276,129v18h-40v-18H276 M278,127h-44v22h44V127L278,127z"/>
</g>
<g>
	<rect x="235" y="172" class="st0" width="42" height="20"/>
	<path class="st1" d="M276,173v18h-40v-18H276 M278,171h-44v22h44V171L278,171z"/>
</g>
<g>
	<rect x="386" y="235" class="st0" width="20" height="42"/>
	<path class="st1" d="M405,236v40h-18v-40H405 M407,234h-22v44h22V234L407,234z"/>
</g>
<g>
	<rect x="342" y="235" class="st0" width="20" height="42"/>
	<path class="st1" d="M361,236v40h-18v-40H361 M363,234h-22v44h22V234L363,234z"/>
</g>
<g>
	<rect x="106" y="235" class="st0" width="20" height="42"/>
	<path class="st1" d="M125,236v40h-18v-40H125 M127,234h-22v44h22V234L127,234z"/>
</g>
<g>
	<rect x="62" y="235" class="st0" width="20" height="42"/>
	<path class="st1" d="M81,236v40H63v-40H81 M83,234H61v44h22V234L83,234z"/>
</g>
<g>
	<rect x="150" y="235" class="st0" width="20" height="42"/>
	<path class="st1" d="M169,236v40h-18v-40H169 M171,234h-22v44h22V234L171,234z"/>
</g>
<g>
	<rect x="194" y="235" class="st0" width="20" height="42"/>
	<path class="st1" d="M213,236v40h-18v-40H213 M215,234h-22v44h22V234L215,234z"/>
</g>
<g>
	<radialGradient id="SVGID_1_" cx="138" cy="138" r="96" gradientUnits="userSpaceOnUse">
		<stop  offset="0" style="stop-color:#DD6B20"/>
		<stop  offset="1" style="stop-color:#C05621"/>
	</radialGradient>
	<path class="st2" d="M64,234c-12.1,0-22-9.9-22-22V64c0-12.1,9.9-22,22-22h148c12.1,0,22,9.9,22,22v148c0,12.1-9.9,22-22,22H64z"/>
	<path class="st3" d="M212,44c11,0,20,9,20,20v148c0,11-9,20-20,20H64c-11,0-20-9-20-20V64c0-11,9-20,20-20H212 M212,40H64
		c-13.3,0-24,10.7-24,24v148c0,13.3,10.7,24,24,24h148c13.3,0,24-10.7,24-24V64C236,50.7,225.3,40,212,40L212,40z"/>
</g>
<g>
	
		<radialGradient id="SVGID_00000020360050631487328710000011266511291030936469_" cx="374" cy="374" r="96" gradientUnits="userSpaceOnUse">
		<stop  offset="0" style="stop-color:#D69E2E"/>
		<stop  offset="1" style="stop-color:#B7791F"/>
	</radialGradient>
	<path style="fill:url(#SVGID_00000020360050631487328710000011266511291030936469_);" d="M300,470c-12.1,0-22-9.9-22-22V300
		c0-12.1,9.9-22,22-22h148c12.1,0,22,9.9,22,22v148c0,12.1-9.9,22-22,22H300z"/>
	<path class="st5" d="M448,280c11,0,20,9,20,20v148c0,11-9,20-20,20H300c-11,0-20-9-20-20V300c0-11,9-20,20-20H448 M448,276H300
		c-13.3,0-24,10.7-24,24v148c0,13.3,10.7,24,24,24h148c13.3,0,24-10.7,24-24V300C472,286.7,461.3,276,448,276L448,276z"/>
</g>
<g>
	
		<radialGradient id="SVGID_00000105418783324333477700000013560332904457195955_" cx="138" cy="374" r="96" gradientUnits="userSpaceOnUse">
		<stop  offset="0" style="stop-color:#3182CE"/>
		<stop  offset="1" style="stop-color:#2B6CB0"/>
	</radialGradient>
	<path style="fill:url(#SVGID_00000105418783324333477700000013560332904457195955_);" d="M64,470c-12.1,0-22-9.9-22-22V300
		c0-12.1,9.9-22,22-22h148c12.1,0,22,9.9,22,22v148c0,12.1-9.9,22-22,22H64z"/>
	<path class="st7" d="M212,280c11,0,20,9,20,20v148c0,11-9,20-20,20H64c-11,0-20-9-20-20V300c0-11,9-20,20-20H212 M212,276H64
		c-13.3,0-24,10.7-24,24v148c0,13.3,10.7,24,24,24h148c13.3,0,24-10.7,24-24V300C236,286.7,225.3,276,212,276L212,276z"/>
</g>
<g>
	
		<radialGradient id="SVGID_00000042014125689684785390000007199924351018607780_" cx="374" cy="138" r="96" gradientUnits="userSpaceOnUse">
		<stop  offset="0" style="stop-color:#38A169"/>
		<stop  offset="1" style="stop-color:#2F855A"/>
	</radialGradient>
	<path style="fill:url(#SVGID_00000042014125689684785390000007199924351018607780_);" d="M300,234c-12.1,0-22-9.9-22-22V64
		c0-12.1,9.9-22,22-22h148c12.1,0,22,9.9,22,22v148c0,12.1-9.9,22-22,22H300z"/>
	<path class="st9" d="M448,44c11,0,20,9,20,20v148c0,11-9,20-20,20H300c-11,0-20-9-20-20V64c0-11,9-20,20-20H448 M448,40H300
		c-13.3,0-24,10.7-24,24v148c0,13.3,10.7,24,24,24h148c13.3,0,24-10.7,24-24V64C472,50.7,461.3,40,448,40L448,40z"/>
</g>
<g>
	<rect x="292" y="292" class="st10" width="164" height="164"/>
	<path class="st11" d="M333,367.2v-20.5L305.7,374l27.3,27.3v-20.5h82v20.5l27.3-27.3L415,346.7v20.5H333z"/>
</g>
<g>
	<path class="st11" d="M111.4,367.2c-0.7,2.1-0.7,4.8-0.7,6.8s0,4.8,0.7,6.8H97v20.5L69.7,374L97,346.7v20.5H111.4z M179,401.3
		v-20.5h-14.4c0.7-2.1,0.7-4.8,0.7-6.8s0-4.8-0.7-6.8H179v-20.5l27.3,27.3L179,401.3z"/>
	<circle class="st11" cx="138" cy="374" r="20.5"/>
	<path class="st11" d="M131.2,333h-20.5l27.3-27.3l27.3,27.3h-20.5v14.4c-2.1-0.7-4.8-0.7-6.8-0.7s-4.8,0-6.8,0.7V333z M144.8,415
		h20.5L138,442.3L110.7,415h20.5v-14.4c2.1,0.7,4.8,0.7,6.8,0.7s4.8,0,6.8-0.7V415z"/>
	<rect x="56" y="292" class="st10" width="164" height="164"/>
</g>
<g>
	<path class="st11" d="M442.3,138L415,110.7v20.5h-34.2V97h20.5L374,69.7L346.7,97h20.5v34.2H333v-20.5L305.7,138l27.3,27.3v-20.5
		h34.2V179h-20.5l27.3,27.3l27.3-27.3h-20.5v-34.2H415v20.5L442.3,138z"/>
	<rect x="292" y="56" class="st10" width="164" height="164"/>
</g>
<g>
	<circle class="st11" cx="138" cy="138" r="20.5"/>
	<rect x="56" y="56" class="st10" width="164" height="164"/>
</g>
</svg>
