<?xml version="1.0" encoding="utf-8"?>
<!-- Generator: Adobe Illustrator 26.0.3, SVG Export Plug-In . SVG Version: 6.00 Build 0)  -->
<svg version="1.1" id="Layer_1" xmlns="http://www.w3.org/2000/svg" xmlns:xlink="http://www.w3.org/1999/xlink" x="0px" y="0px"
	 viewBox="0 0 190 148" style="enable-background:new 0 0 190 148;" xml:space="preserve">
<style type="text/css">
	.st0{fill:url(#SVGID_1_);}
	.st1{opacity:7.500000e-02;}
	.st2{fill:#6E3B0F;}
	.st3{fill:#975A16;}
	.st4{fill:#553C9A;}
	.st5{fill:#276749;}
	.st6{fill:#9C4221;}
	.st7{fill:#9B2C2C;}
	.st8{fill:url(#SVGID_00000051384603378568098810000009166758621814947718_);}
	.st9{fill:url(#SVGID_00000171678807809332613240000002608928850531856561_);}
	.st10{fill:url(#SVGID_00000135666312268480744370000001621436119318557611_);}
	.st11{fill:url(#SVGID_00000145761019446434627550000012086809612750810038_);}
	.st12{fill:url(#SVGID_00000165206283724482062920000012225950754625772724_);}
	.st13{fill:url(#SVGID_00000090259241763158771140000000823879850344412549_);}
	.st14{fill:url(#SVGID_00000057108542931470280030000013953290598617206923_);}
	.st15{fill:url(#SVGID_00000148638822898125531670000017051129274386425489_);}
	.st16{fill:url(#SVGID_00000147181806710487833060000000010281181915297928_);}
	.st17{fill:url(#SVGID_00000105419263040064057010000000318267799672209065_);}
	.st18{fill:url(#SVGID_00000008861230389755062140000008766025263299167108_);}
</style>
<linearGradient id="SVGID_1_" gradientUnits="userSpaceOnUse" x1="13.2574" y1="-5.7426" x2="176.7426" y2="157.7426">
	<stop  offset="0" style="stop-color:#76E4F7"/>
	<stop  offset="1" style="stop-color:#0BC5EA"/>
</linearGradient>
<path class="st0" d="M184,148H6c-3.3,0-6-2.7-6-6V10c0-3.3,2.7-6,6-6h178c3.3,0,6,2.7,6,6v132C190,145.3,187.3,148,184,148z"/>
<path class="st1" d="M132,96h-28c-3.3,0-6-2.7-6-6V62c0-3.3,2.7-6,6-6h28c3.3,0,6,2.7,6,6v28C138,93.3,135.3,96,132,96z"/>
<path class="st1" d="M178,96h-28c-3.3,0-6-2.7-6-6V62c0-3.3,2.7-6,6-6h28c3.3,0,6,2.7,6,6v28C184,93.3,181.3,96,178,96z"/>
<path class="st1" d="M40,50H12c-3.3,0-6-2.7-6-6V16c0-3.3,2.7-6,6-6h28c3.3,0,6,2.7,6,6v28C46,47.3,43.3,50,40,50z"/>
<path class="st1" d="M40,142H12c-3.3,0-6-2.7-6-6v-28c0-3.3,2.7-6,6-6h28c3.3,0,6,2.7,6,6v28C46,139.3,43.3,142,40,142z"/>
<path class="st1" d="M86,142H58c-3.3,0-6-2.7-6-6v-28c0-3.3,2.7-6,6-6h28c3.3,0,6,2.7,6,6v28C92,139.3,89.3,142,86,142z"/>
<path class="st1" d="M132,142h-28c-3.3,0-6-2.7-6-6v-28c0-3.3,2.7-6,6-6h28c3.3,0,6,2.7,6,6v28C138,139.3,135.3,142,132,142z"/>
<path class="st1" d="M178,142h-28c-3.3,0-6-2.7-6-6v-28c0-3.3,2.7-6,6-6h28c3.3,0,6,2.7,6,6v28C184,139.3,181.3,142,178,142z"/>
<path class="st1" d="M86,50H58c-3.3,0-6-2.7-6-6V16c0-3.3,2.7-6,6-6h28c3.3,0,6,2.7,6,6v28C92,47.3,89.3,50,86,50z"/>
<path class="st1" d="M132,50h-28c-3.3,0-6-2.7-6-6V16c0-3.3,2.7-6,6-6h28c3.3,0,6,2.7,6,6v28C138,47.3,135.3,50,132,50z"/>
<path class="st1" d="M178,50h-28c-3.3,0-6-2.7-6-6V16c0-3.3,2.7-6,6-6h28c3.3,0,6,2.7,6,6v28C184,47.3,181.3,50,178,50z"/>
<path class="st2" d="M85.9,50H58.1c-3.4,0-6.1-2.7-6.1-6.1V16.1c0-3.8,3.4-6.7,7.2-6c16.6,3,29.7,16.1,32.7,32.7
	C92.6,46.6,89.7,50,85.9,50z"/>
<path class="st3" d="M46,16.1v27.8c0,3.4-2.7,6.1-6.1,6.1H12.1c-3.8,0-6.7-3.4-6-7.2c3-16.6,16.1-29.7,32.7-32.7
	C42.6,9.4,46,12.3,46,16.1z"/>
<path class="st4" d="M52,135.9v-27.8c0-3.4,2.7-6.1,6.1-6.1h27.8c3.8,0,6.7,3.4,6,7.2c-3,16.6-16.1,29.7-32.7,32.7
	C55.4,142.6,52,139.7,52,135.9z"/>
<path class="st5" d="M46,135.9v-27.8c0-3.4-2.7-6.1-6.1-6.1H12.1c-3.8,0-6.7,3.4-6,7.2c3,16.6,16.1,29.7,32.7,32.7
	C42.6,142.6,46,139.7,46,135.9z"/>
<path class="st6" d="M177.9,50h-27.8c-3.4,0-6.1-2.7-6.1-6.1V16.1c0-3.8,3.4-6.7,7.2-6c16.6,3,29.7,16.1,32.7,32.7
	C184.6,46.6,181.7,50,177.9,50z"/>
<path class="st5" d="M138,16.1v27.8c0,3.4-2.7,6.1-6.1,6.1h-27.8c-3.8,0-6.7-3.4-6-7.2c3-16.6,16.1-29.7,32.7-32.7
	C134.6,9.4,138,12.3,138,16.1z"/>
<path class="st4" d="M177.9,96h-27.8c-3.4,0-6.1-2.7-6.1-6.1V62.1c0-3.8,3.4-6.7,7.2-6c16.6,3,29.7,16.1,32.7,32.7
	C184.6,92.6,181.7,96,177.9,96z"/>
<path class="st7" d="M40,96H12c-3.3,0-6-2.7-6-6V62c0-3.3,2.7-6,6-6h28c3.3,0,6,2.7,6,6v28C46,93.3,43.3,96,40,96z"/>
<path class="st3" d="M144,135.9v-27.8c0-3.4,2.7-6.1,6.1-6.1h27.8c3.8,0,6.7,3.4,6,7.2c-3,16.6-16.1,29.7-32.7,32.7
	C147.4,142.6,144,139.7,144,135.9z"/>
<path class="st6" d="M138,135.9v-27.8c0-3.4-2.7-6.1-6.1-6.1h-27.8c-3.8,0-6.7,3.4-6,7.2c3,16.6,16.1,29.7,32.7,32.7
	C134.6,142.6,138,139.7,138,135.9z"/>
<path class="st2" d="M138,89.9V62.1c0-3.4-2.7-6.1-6.1-6.1h-27.8c-3.8,0-6.7,3.4-6,7.2c3,16.6,16.1,29.7,32.7,32.7
	C134.6,96.6,138,93.7,138,89.9z"/>
<radialGradient id="SVGID_00000072249253895031495890000003974873799523365052_" cx="72" cy="26" r="20" gradientUnits="userSpaceOnUse">
	<stop  offset="0" style="stop-color:#C88933"/>
	<stop  offset="1" style="stop-color:#AD691B"/>
</radialGradient>
<path style="fill:url(#SVGID_00000072249253895031495890000003974873799523365052_);" d="M85.9,46H58.1c-3.4,0-6.1-2.7-6.1-6.1V12.1
	c0-3.8,3.4-6.7,7.2-6c16.6,3,29.7,16.1,32.7,32.7C92.6,42.6,89.7,46,85.9,46z"/>
<radialGradient id="SVGID_00000160908416085842803570000005856495461549924486_" cx="26" cy="26" r="20" gradientUnits="userSpaceOnUse">
	<stop  offset="0" style="stop-color:#ECC94B"/>
	<stop  offset="1" style="stop-color:#D69E2E"/>
</radialGradient>
<path style="fill:url(#SVGID_00000160908416085842803570000005856495461549924486_);" d="M46,12.1v27.8c0,3.4-2.7,6.1-6.1,6.1H12.1
	c-3.8,0-6.7-3.4-6-7.2c3-16.6,16.1-29.7,32.7-32.7C42.6,5.4,46,8.3,46,12.1z"/>
<radialGradient id="SVGID_00000124883583358080669980000009652010920275284642_" cx="72" cy="118" r="20" gradientUnits="userSpaceOnUse">
	<stop  offset="0" style="stop-color:#9F7AEA"/>
	<stop  offset="1" style="stop-color:#805AD5"/>
</radialGradient>
<path style="fill:url(#SVGID_00000124883583358080669980000009652010920275284642_);" d="M52,131.9v-27.8c0-3.4,2.7-6.1,6.1-6.1
	h27.8c3.8,0,6.7,3.4,6,7.2c-3,16.6-16.1,29.7-32.7,32.7C55.4,138.6,52,135.7,52,131.9z"/>
<radialGradient id="SVGID_00000141442003116582848170000009374305667593944723_" cx="26" cy="118" r="20" gradientUnits="userSpaceOnUse">
	<stop  offset="0" style="stop-color:#48BB78"/>
	<stop  offset="1" style="stop-color:#38A169"/>
</radialGradient>
<path style="fill:url(#SVGID_00000141442003116582848170000009374305667593944723_);" d="M46,131.9v-27.8c0-3.4-2.7-6.1-6.1-6.1
	H12.1c-3.8,0-6.7,3.4-6,7.2c3,16.6,16.1,29.7,32.7,32.7C42.6,138.6,46,135.7,46,131.9z"/>
<radialGradient id="SVGID_00000114771948603549420590000001061016270255356825_" cx="164" cy="26" r="20" gradientUnits="userSpaceOnUse">
	<stop  offset="0" style="stop-color:#ED8936"/>
	<stop  offset="1" style="stop-color:#DD6B20"/>
</radialGradient>
<path style="fill:url(#SVGID_00000114771948603549420590000001061016270255356825_);" d="M177.9,46h-27.8c-3.4,0-6.1-2.7-6.1-6.1
	V12.1c0-3.8,3.4-6.7,7.2-6c16.6,3,29.7,16.1,32.7,32.7C184.6,42.6,181.7,46,177.9,46z"/>
<radialGradient id="SVGID_00000043420568978332118650000005292683519088533929_" cx="118" cy="26" r="20" gradientUnits="userSpaceOnUse">
	<stop  offset="0" style="stop-color:#48BB78"/>
	<stop  offset="1" style="stop-color:#38A169"/>
</radialGradient>
<path style="fill:url(#SVGID_00000043420568978332118650000005292683519088533929_);" d="M138,12.1v27.8c0,3.4-2.7,6.1-6.1,6.1
	h-27.8c-3.8,0-6.7-3.4-6-7.2c3-16.6,16.1-29.7,32.7-32.7C134.6,5.4,138,8.3,138,12.1z"/>
<radialGradient id="SVGID_00000105398820823349119390000014533890996144761269_" cx="164" cy="72" r="20" gradientUnits="userSpaceOnUse">
	<stop  offset="0" style="stop-color:#9F7AEA"/>
	<stop  offset="1" style="stop-color:#805AD5"/>
</radialGradient>
<path style="fill:url(#SVGID_00000105398820823349119390000014533890996144761269_);" d="M177.9,92h-27.8c-3.4,0-6.1-2.7-6.1-6.1
	V58.1c0-3.8,3.4-6.7,7.2-6c16.6,3,29.7,16.1,32.7,32.7C184.6,88.6,181.7,92,177.9,92z"/>
<radialGradient id="SVGID_00000073699419671019033200000002612724198646622630_" cx="26" cy="72" r="20" gradientUnits="userSpaceOnUse">
	<stop  offset="0" style="stop-color:#F56565"/>
	<stop  offset="1" style="stop-color:#E53E3E"/>
</radialGradient>
<path style="fill:url(#SVGID_00000073699419671019033200000002612724198646622630_);" d="M40,92H12c-3.3,0-6-2.7-6-6V58
	c0-3.3,2.7-6,6-6h28c3.3,0,6,2.7,6,6v28C46,89.3,43.3,92,40,92z"/>
<radialGradient id="SVGID_00000005251640210161327870000011853326546046123700_" cx="164" cy="118" r="20" gradientUnits="userSpaceOnUse">
	<stop  offset="0" style="stop-color:#ECC94B"/>
	<stop  offset="1" style="stop-color:#D69E2E"/>
</radialGradient>
<path style="fill:url(#SVGID_00000005251640210161327870000011853326546046123700_);" d="M144,131.9v-27.8c0-3.4,2.7-6.1,6.1-6.1
	h27.8c3.8,0,6.7,3.4,6,7.2c-3,16.6-16.1,29.7-32.7,32.7C147.4,138.6,144,135.7,144,131.9z"/>
<radialGradient id="SVGID_00000023269116464790262620000004549632295043511692_" cx="118" cy="118" r="20" gradientUnits="userSpaceOnUse">
	<stop  offset="0" style="stop-color:#ED8936"/>
	<stop  offset="1" style="stop-color:#DD6B20"/>
</radialGradient>
<path style="fill:url(#SVGID_00000023269116464790262620000004549632295043511692_);" d="M138,131.9v-27.8c0-3.4-2.7-6.1-6.1-6.1
	h-27.8c-3.8,0-6.7,3.4-6,7.2c3,16.6,16.1,29.7,32.7,32.7C134.6,138.6,138,135.7,138,131.9z"/>
<radialGradient id="SVGID_00000130640988275596049050000002025335675301825164_" cx="118" cy="72" r="20" gradientUnits="userSpaceOnUse">
	<stop  offset="0" style="stop-color:#C88933"/>
	<stop  offset="1" style="stop-color:#AD691B"/>
</radialGradient>
<path style="fill:url(#SVGID_00000130640988275596049050000002025335675301825164_);" d="M138,85.9V58.1c0-3.4-2.7-6.1-6.1-6.1
	h-27.8c-3.8,0-6.7,3.4-6,7.2c3,16.6,16.1,29.7,32.7,32.7C134.6,92.6,138,89.7,138,85.9z"/>
<path class="st1" d="M86,96H58c-3.3,0-6-2.7-6-6V62c0-3.3,2.7-6,6-6h28c3.3,0,6,2.7,6,6v28C92,93.3,89.3,96,86,96z"/>
</svg>
